<svg width="17" height="17" viewBox="0 0 17 17" fill="none" xmlns="http://www.w3.org/2000/svg">
<path fill-rule="evenodd" clip-rule="evenodd" d="M8.23807 0.422607C6.04065 0.422607 5.76698 0.432278 4.90285 0.473721C1.96397 0.611866 0.332757 2.28204 0.197946 5.2936C0.158851 6.17911 0.149414 6.46092 0.149414 8.7113C0.149414 10.9631 0.158851 11.2449 0.197946 12.129C0.332757 15.1392 1.96397 16.8121 4.90285 16.9503C5.76698 16.9903 6.04065 17 8.23807 17C10.4355 17 10.7105 16.9903 11.5746 16.9503C14.5081 16.8121 16.1461 15.142 16.2782 12.129C16.3173 11.2449 16.3267 10.9631 16.3267 8.7113C16.3267 6.46092 16.3173 6.17911 16.2782 5.2936C16.1461 2.28618 14.5135 0.610485 11.5746 0.473721C10.7105 0.432278 10.4355 0.422607 8.23807 0.422607ZM8.23793 1.91735C10.3976 1.91735 10.6537 1.92564 11.5071 1.9657C13.7005 2.06792 14.7223 3.133 14.8235 5.36262C14.8612 6.23707 14.8693 6.49816 14.8693 8.7112C14.8693 10.9242 14.8612 11.1867 14.8235 12.0598C14.7223 14.288 13.7018 15.3559 11.5071 15.4581C10.6537 15.4968 10.399 15.5064 8.23793 15.5064C6.07825 15.5064 5.82211 15.4981 4.97011 15.4581C2.77268 15.3545 1.75486 14.2853 1.65375 12.0598C1.616 11.1867 1.60657 10.9242 1.60657 8.7112C1.60657 6.49816 1.616 6.23569 1.65375 5.36262C1.75351 3.13162 2.77538 2.06654 4.97011 1.96432C5.82211 1.92426 6.07825 1.91735 8.23793 1.91735ZM4.08441 8.71123C4.08441 6.35998 5.9448 4.45493 8.23793 4.45493C10.5311 4.45493 12.3914 6.36136 12.3914 8.71123C12.3914 11.0625 10.5311 12.9675 8.23793 12.9675C5.9448 12.9675 4.08441 11.0625 4.08441 8.71123ZM8.23796 11.4743C6.7483 11.4743 5.54175 10.2378 5.54175 8.7113C5.54175 7.18616 6.7483 5.94836 8.23796 5.94836C9.72627 5.94836 10.9355 7.18478 10.9355 8.7113C10.9355 10.2378 9.72627 11.4743 8.23796 11.4743ZM11.5841 4.28795C11.5841 3.73812 12.0195 3.29329 12.5547 3.29329C13.0926 3.29329 13.5267 3.73812 13.5267 4.28795C13.5267 4.83777 13.0913 5.28261 12.5547 5.28261C12.0182 5.28261 11.5841 4.83639 11.5841 4.28795Z" fill="#56C6CE"/>
</svg>
