<svg width="144" height="100" viewBox="0 0 144 100" fill="none" xmlns="http://www.w3.org/2000/svg">
<path d="M0 0H144V94C144 97.3137 141.314 100 138 100H6C2.68629 100 0 97.3137 0 94V0Z" fill="#013275"/>
<path d="M91.2336 57.3409V74.7864C91.2336 75.0593 90.9966 75.2639 90.7232 75.2639H88.0068C87.7151 75.2639 87.4963 75.0422 87.4963 74.7864V50.4173C87.4963 50.1445 87.7333 49.9398 88.0068 49.9398H92.3639C92.6009 49.9398 92.8015 50.0933 92.8562 50.2979C94.187 54.9876 95.5361 59.7113 96.8669 64.418C96.9581 64.401 96.9216 64.418 97.0128 64.401V50.4173C97.0128 50.1445 97.2498 49.9398 97.5232 49.9398H100.294C100.586 49.9398 100.805 50.1615 100.805 50.4173V74.8376C100.805 75.1104 100.568 75.3151 100.294 75.3151H98.7265H96.9034C96.6664 75.3151 96.4659 75.1616 96.4112 74.9569C94.7339 69.0736 93.0567 63.2072 91.3795 57.3239C91.3066 57.3239 91.3248 57.3239 91.2336 57.3409Z" fill="white"/>
<path d="M103.153 50.416C103.153 50.1439 103.398 49.9398 103.679 49.9398C104.356 49.9398 105.033 49.9398 105.69 49.9398C107.156 49.9398 108.641 49.9398 110.106 49.9398C114.241 49.9398 116.289 52.1674 116.383 55.5174C116.514 60.2447 116.458 64.972 116.383 69.7163C116.364 70.6175 116.045 71.5528 115.669 72.42C115.067 73.7974 113.846 74.6136 112.286 75.0047C111.685 75.1578 111.065 75.2938 110.445 75.2938C108.208 75.3278 105.972 75.3108 103.679 75.3108C103.379 75.3108 103.153 75.0897 103.153 74.8347V50.416ZM107.607 53.5618V71.5868C108.114 71.5868 108.547 71.5698 108.979 71.5868C111.441 71.7568 111.948 70.8556 111.948 68.917C111.91 64.6999 111.948 60.4827 111.929 56.2656C111.929 55.9255 111.929 55.5854 111.892 55.2453C111.779 54.242 111.121 53.6298 110.012 53.5618C109.261 53.5278 108.471 53.5618 107.607 53.5618Z" fill="white"/>
<path d="M84.6034 75.3151H81.284C81.0229 75.3151 80.7991 75.1445 80.7618 74.9058C80.5194 73.4221 80.2956 71.9385 80.0345 70.4208H75.0367C74.7943 71.9044 74.5705 73.388 74.328 74.8887C74.2907 75.1275 74.067 75.298 73.8059 75.298H70.8034C70.4864 75.298 70.2253 75.0252 70.2813 74.7353C71.7359 66.5838 73.1718 58.4835 74.6264 50.3491C74.6637 50.1104 74.8875 49.9398 75.1486 49.9398H80.2583C80.5194 49.9398 80.7432 50.1104 80.7805 50.3491C82.2351 58.4664 83.671 66.5497 85.1443 74.7523C85.1816 75.0593 84.9205 75.3151 84.6034 75.3151ZM77.6288 54.9023C77.4983 54.9023 77.5356 54.9023 77.4051 54.9023C76.8083 58.8587 76.2116 62.798 75.6148 66.7714H79.4751C78.8597 62.7639 78.2443 58.8416 77.6288 54.9023Z" fill="white"/>
<path d="M39.9777 58.2646H37.002C36.7135 58.2646 36.4971 58.0338 36.4971 57.7497C36.4971 57.0039 36.4971 56.2936 36.4971 55.5656C36.4971 55.1749 36.5151 54.7843 36.4249 54.4114C36.1725 53.2572 35.4331 52.7244 34.2248 52.7955C33.1427 52.8487 32.5295 53.4347 32.3672 54.5889C32.3131 54.9086 32.2951 55.2282 32.2951 55.5656C32.2951 60.2712 32.2951 64.9768 32.2951 69.6824C32.2951 70.0908 32.3311 70.517 32.4033 70.9254C32.6017 71.8487 33.2148 72.3282 34.1887 72.3814C35.3429 72.4525 35.9921 72.0973 36.3167 71.1562C36.443 70.7656 36.4791 70.3394 36.4971 69.9487C36.5151 68.8833 36.5151 67.8001 36.4971 66.6992C36.4971 66.4151 36.7315 66.1842 37.002 66.1842H39.9777C40.2663 66.1842 40.5007 66.4151 40.4827 66.6992C40.4647 68.4927 40.6991 70.2684 40.2302 72.0085C39.4547 74.974 37.4168 76.0394 34.8199 76.2347C33.9723 76.3057 33.0706 76.1814 32.241 75.9861C30.0047 75.4889 28.4718 73.7842 28.1832 71.5469C28.075 70.73 28.0209 69.8955 28.0029 69.0786C28.0029 64.5328 27.9849 60.0048 28.039 55.4768C28.057 54.4646 28.2373 53.3992 28.562 52.4403C29.3014 50.345 30.9605 49.2796 33.1788 49.0665C34.351 48.96 35.5232 48.9422 36.6594 49.3151C38.4448 49.9011 39.581 51.1086 40.14 52.8487C40.663 54.4469 40.4827 56.0805 40.4827 57.7674C40.4827 58.0515 40.2482 58.2646 39.9777 58.2646Z" fill="white"/>
<path d="M57.48 49.9398H68.1176C68.4115 49.9398 68.632 50.1617 68.632 50.4176V53.0115C68.632 53.2845 68.3931 53.4893 68.1176 53.4893H61.3382V60.1616H66.5743C66.8682 60.1616 67.0887 60.3834 67.0887 60.6394V63.3868C67.0887 63.6599 66.8499 63.8646 66.5743 63.8646H61.3198V71.5779H68.1727C68.4483 71.5779 68.6871 71.7827 68.6871 72.0386C68.7238 72.9943 68.7055 73.8987 68.6871 74.8372C68.6871 75.0932 68.4483 75.3151 68.1727 75.3151H57.48C57.186 75.3151 56.9656 75.0932 56.9656 74.8372V50.4347C56.9656 50.1617 57.2044 49.9398 57.48 49.9398Z" fill="white"/>
<path d="M47.8271 71.6291H54.1001C54.3852 71.6291 54.6169 71.8509 54.6169 72.124V74.8202C54.6169 75.0932 54.3852 75.3151 54.1001 75.3151H44.1738C43.8887 75.3151 43.657 75.0932 43.657 74.8202V50.4347C43.657 50.1617 43.8887 49.9398 44.1738 49.9398H47.3281C47.6132 49.9398 47.8449 50.1617 47.8449 50.4347V71.6291H47.8271Z" fill="white"/>
</svg>
