<svg width="17" height="14" viewBox="0 0 17 14" fill="none" xmlns="http://www.w3.org/2000/svg">
<path d="M16.2354 2.09044C15.6409 2.3612 15.0005 2.54355 14.3292 2.62644C15.0154 2.2051 15.5398 1.53924 15.7892 0.744914C15.1475 1.13448 14.437 1.41768 13.6807 1.56964C13.0768 0.907924 12.2127 0.494873 11.2595 0.494873C9.11605 0.494873 7.54146 2.54355 8.02543 4.67097C5.26855 4.52869 2.82173 3.17487 1.18512 1.1179C0.315594 2.64578 0.734856 4.64611 2.21238 5.65871C1.6691 5.64075 1.15816 5.48741 0.71059 5.23322C0.674191 6.80807 1.77694 8.28207 3.37311 8.61085C2.90666 8.7407 2.39438 8.7711 1.87401 8.66887C2.29597 10.0199 3.52409 11.0021 4.97466 11.0298C3.57667 12.1515 1.82008 12.653 0.0581055 12.4402C1.52754 13.4058 3.27065 13.9681 5.14452 13.9681C11.3081 13.9681 14.7889 8.63433 14.5786 3.8504C15.2284 3.37242 15.7905 2.77287 16.2354 2.09044Z" fill="#56C6CE"/>
</svg>
